<?xml version="1.0" encoding="UTF-8" standalone="no"?>
<!DOCTYPE svg PUBLIC "-//W3C//DTD SVG 1.1//EN"
 "http://www.w3.org/Graphics/SVG/1.1/DTD/svg11.dtd">
<!-- Generated by graphviz version 2.40.1 (20161225.0304)
 -->
<!-- Title: dependencies Pages: 1 -->
<svg width="504pt" height="211pt"
 viewBox="0.00 0.00 504.00 211.00" xmlns="http://www.w3.org/2000/svg" xmlns:xlink="http://www.w3.org/1999/xlink">
<g id="graph0" class="graph" transform="scale(1 1) rotate(0) translate(4 207)">
<title>dependencies</title>
<polygon fill="#ffffff" stroke="transparent" points="-4,4 -4,-207 500,-207 500,4 -4,4"/>
<text text-anchor="start" x="227.0091" y="-42.4" font-family="sans-serif" font-weight="bold" font-size="14.00" fill="#000000">Legend</text>
<polygon fill="#ffffb3" stroke="transparent" points="14,-10 14,-30 34,-30 34,-10 14,-10"/>
<text text-anchor="start" x="37.629" y="-15.4" font-family="sans-serif" font-size="14.00" fill="#000000"> &#160;Declarations</text>
<polygon fill="#8dd3c7" stroke="transparent" points="127,-10 127,-30 147,-30 147,-10 127,-10"/>
<text text-anchor="start" x="150.7251" y="-15.4" font-family="sans-serif" font-size="14.00" fill="#000000"> &#160;Module</text>
<polygon fill="#80b1d3" stroke="transparent" points="213,-10 213,-30 233,-30 233,-10 213,-10"/>
<text text-anchor="start" x="236.7812" y="-15.4" font-family="sans-serif" font-size="14.00" fill="#000000"> &#160;Bootstrap</text>
<polygon fill="#fdb462" stroke="transparent" points="310,-10 310,-30 330,-30 330,-10 310,-10"/>
<text text-anchor="start" x="333.6732" y="-15.4" font-family="sans-serif" font-size="14.00" fill="#000000"> &#160;Providers</text>
<polygon fill="#fb8072" stroke="transparent" points="406,-10 406,-30 426,-30 426,-10 406,-10"/>
<text text-anchor="start" x="429.7258" y="-15.4" font-family="sans-serif" font-size="14.00" fill="#000000"> &#160;Exports</text>
<g id="clust1" class="cluster">
<title>cluster_CoreModule</title>
<polygon fill="none" stroke="#000000" stroke-dasharray="1,5" points="16,-70 16,-195 480,-195 480,-70 16,-70"/>
</g>
<g id="clust3" class="cluster">
<title>cluster_CoreModule_imports</title>
<polygon fill="none" stroke="#000000" points="364,-78 364,-130 472,-130 472,-78 364,-78"/>
</g>
<g id="clust6" class="cluster">
<title>cluster_CoreModule_providers</title>
<polygon fill="none" stroke="#000000" points="24,-78 24,-130 356,-130 356,-78 24,-78"/>
</g>
<!-- !environment -->
<g id="node1" class="node">
<title>!environment</title>
<polygon fill="#8dd3c7" stroke="#000000" points="463.9232,-122 460.9232,-126 439.9232,-126 436.9232,-122 372.0768,-122 372.0768,-86 463.9232,-86 463.9232,-122"/>
<text text-anchor="middle" x="418" y="-99.8" font-family="Times,serif" font-size="14.00" fill="#000000">!environment</text>
</g>
<!-- CoreModule -->
<g id="node2" class="node">
<title>CoreModule</title>
<polygon fill="#8dd3c7" stroke="#000000" points="333.2619,-187 330.2619,-191 309.2619,-191 306.2619,-187 246.7381,-187 246.7381,-151 333.2619,-151 333.2619,-187"/>
<text text-anchor="middle" x="290" y="-164.8" font-family="Times,serif" font-size="14.00" fill="#000000">CoreModule</text>
</g>
<!-- !environment&#45;&gt;CoreModule -->
<g id="edge1" class="edge">
<title>!environment&#45;&gt;CoreModule</title>
<path fill="none" stroke="#000000" d="M418,-122.1061C418,-141.3391 418,-169 418,-169 418,-169 343.335,-169 343.335,-169"/>
<polygon fill="#000000" stroke="#000000" points="343.335,-165.5001 333.335,-169 343.3349,-172.5001 343.335,-165.5001"/>
</g>
<!-- I18nService -->
<g id="node3" class="node">
<title>I18nService</title>
<ellipse fill="#fdb462" stroke="#000000" cx="290" cy="-104" rx="57.8849" ry="18"/>
<text text-anchor="middle" x="290" y="-99.8" font-family="Times,serif" font-size="14.00" fill="#000000">I18nService</text>
</g>
<!-- I18nService&#45;&gt;CoreModule -->
<g id="edge2" class="edge">
<title>I18nService&#45;&gt;CoreModule</title>
<path fill="none" stroke="#000000" d="M290,-122.1061C290,-122.1061 290,-140.991 290,-140.991"/>
<polygon fill="#000000" stroke="#000000" points="286.5001,-140.9909 290,-150.991 293.5001,-140.991 286.5001,-140.9909"/>
</g>
<!-- LocalStorageService -->
<g id="node4" class="node">
<title>LocalStorageService</title>
<ellipse fill="#fdb462" stroke="#000000" cx="123" cy="-104" rx="91.4481" ry="18"/>
<text text-anchor="middle" x="123" y="-99.8" font-family="Times,serif" font-size="14.00" fill="#000000">LocalStorageService</text>
</g>
<!-- LocalStorageService&#45;&gt;CoreModule -->
<g id="edge3" class="edge">
<title>LocalStorageService&#45;&gt;CoreModule</title>
<path fill="none" stroke="#000000" d="M123,-122.1061C123,-141.3391 123,-169 123,-169 123,-169 236.5587,-169 236.5587,-169"/>
<polygon fill="#000000" stroke="#000000" points="236.5587,-172.5001 246.5587,-169 236.5586,-165.5001 236.5587,-172.5001"/>
</g>
</g>
</svg>
