<?xml version="1.0" encoding="UTF-8" standalone="no"?>
<!DOCTYPE svg PUBLIC "-//W3C//DTD SVG 1.1//EN"
 "http://www.w3.org/Graphics/SVG/1.1/DTD/svg11.dtd">
<!-- Generated by graphviz version 2.40.1 (20161225.0304)
 -->
<!-- Title: dependencies Pages: 1 -->
<svg width="963pt" height="211pt"
 viewBox="0.00 0.00 963.00 211.00" xmlns="http://www.w3.org/2000/svg" xmlns:xlink="http://www.w3.org/1999/xlink">
<g id="graph0" class="graph" transform="scale(1 1) rotate(0) translate(4 207)">
<title>dependencies</title>
<polygon fill="#ffffff" stroke="transparent" points="-4,4 -4,-207 959,-207 959,4 -4,4"/>
<text text-anchor="start" x="456.5091" y="-42.4" font-family="sans-serif" font-weight="bold" font-size="14.00" fill="#000000">Legend</text>
<polygon fill="#ffffb3" stroke="transparent" points="243.5,-10 243.5,-30 263.5,-30 263.5,-10 243.5,-10"/>
<text text-anchor="start" x="267.129" y="-15.4" font-family="sans-serif" font-size="14.00" fill="#000000"> &#160;Declarations</text>
<polygon fill="#8dd3c7" stroke="transparent" points="356.5,-10 356.5,-30 376.5,-30 376.5,-10 356.5,-10"/>
<text text-anchor="start" x="380.2251" y="-15.4" font-family="sans-serif" font-size="14.00" fill="#000000"> &#160;Module</text>
<polygon fill="#80b1d3" stroke="transparent" points="442.5,-10 442.5,-30 462.5,-30 462.5,-10 442.5,-10"/>
<text text-anchor="start" x="466.2812" y="-15.4" font-family="sans-serif" font-size="14.00" fill="#000000"> &#160;Bootstrap</text>
<polygon fill="#fdb462" stroke="transparent" points="539.5,-10 539.5,-30 559.5,-30 559.5,-10 539.5,-10"/>
<text text-anchor="start" x="563.1732" y="-15.4" font-family="sans-serif" font-size="14.00" fill="#000000"> &#160;Providers</text>
<polygon fill="#fb8072" stroke="transparent" points="635.5,-10 635.5,-30 655.5,-30 655.5,-10 635.5,-10"/>
<text text-anchor="start" x="659.2258" y="-15.4" font-family="sans-serif" font-size="14.00" fill="#000000"> &#160;Exports</text>
<g id="clust1" class="cluster">
<title>cluster_ChatModule</title>
<polygon fill="none" stroke="#000000" stroke-dasharray="1,5" points="8,-70 8,-195 947,-195 947,-70 8,-70"/>
</g>
<g id="clust2" class="cluster">
<title>cluster_ChatModule_declarations</title>
<polygon fill="none" stroke="#000000" points="573,-78 573,-130 939,-130 939,-78 573,-78"/>
</g>
<g id="clust6" class="cluster">
<title>cluster_ChatModule_imports</title>
<polygon fill="none" stroke="#000000" points="188,-78 188,-130 565,-130 565,-78 188,-78"/>
</g>
<g id="clust9" class="cluster">
<title>cluster_ChatModule_providers</title>
<polygon fill="none" stroke="#000000" points="16,-78 16,-130 180,-130 180,-78 16,-78"/>
</g>
<!-- ChatComponent -->
<g id="node1" class="node">
<title>ChatComponent</title>
<polygon fill="#ffffb3" stroke="#000000" points="930.7744,-122 823.2256,-122 823.2256,-86 930.7744,-86 930.7744,-122"/>
<text text-anchor="middle" x="877" y="-99.8" font-family="Times,serif" font-size="14.00" fill="#000000">ChatComponent</text>
</g>
<!-- ChatModule -->
<g id="node4" class="node">
<title>ChatModule</title>
<polygon fill="#8dd3c7" stroke="#000000" points="533.9916,-187 530.9916,-191 509.9916,-191 506.9916,-187 448.0084,-187 448.0084,-151 533.9916,-151 533.9916,-187"/>
<text text-anchor="middle" x="491" y="-164.8" font-family="Times,serif" font-size="14.00" fill="#000000">ChatModule</text>
</g>
<!-- ChatComponent&#45;&gt;ChatModule -->
<g id="edge1" class="edge">
<title>ChatComponent&#45;&gt;ChatModule</title>
<path fill="none" stroke="#000000" d="M877,-122.2921C877,-144.2057 877,-178 877,-178 877,-178 544.1555,-178 544.1555,-178"/>
<polygon fill="#000000" stroke="#000000" points="544.1556,-174.5001 534.1555,-178 544.1555,-181.5001 544.1556,-174.5001"/>
</g>
<!-- MessageComponent -->
<g id="node2" class="node">
<title>MessageComponent</title>
<polygon fill="#ffffb3" stroke="#000000" points="805.3104,-122 674.6896,-122 674.6896,-86 805.3104,-86 805.3104,-122"/>
<text text-anchor="middle" x="740" y="-99.8" font-family="Times,serif" font-size="14.00" fill="#000000">MessageComponent</text>
</g>
<!-- MessageComponent&#45;&gt;ChatModule -->
<g id="edge2" class="edge">
<title>MessageComponent&#45;&gt;ChatModule</title>
<path fill="none" stroke="#000000" d="M740,-122.1061C740,-141.3391 740,-169 740,-169 740,-169 544.0882,-169 544.0882,-169"/>
<polygon fill="#000000" stroke="#000000" points="544.0883,-165.5001 534.0882,-169 544.0882,-172.5001 544.0883,-165.5001"/>
</g>
<!-- ParserPipe -->
<g id="node3" class="node">
<title>ParserPipe</title>
<polygon fill="#ffffb3" stroke="#000000" points="656.8655,-122 581.1345,-122 581.1345,-86 656.8655,-86 656.8655,-122"/>
<text text-anchor="middle" x="619" y="-99.8" font-family="Times,serif" font-size="14.00" fill="#000000">ParserPipe</text>
</g>
<!-- ParserPipe&#45;&gt;ChatModule -->
<g id="edge3" class="edge">
<title>ParserPipe&#45;&gt;ChatModule</title>
<path fill="none" stroke="#000000" d="M619,-122.027C619,-138.3976 619,-160 619,-160 619,-160 544.335,-160 544.335,-160"/>
<polygon fill="#000000" stroke="#000000" points="544.335,-156.5001 534.335,-160 544.3349,-163.5001 544.335,-156.5001"/>
</g>
<!-- ChatRoutingModule -->
<g id="node5" class="node">
<title>ChatRoutingModule</title>
<polygon fill="#8dd3c7" stroke="#000000" points="556.6094,-122 553.6094,-126 532.6094,-126 529.6094,-122 425.3906,-122 425.3906,-86 556.6094,-86 556.6094,-122"/>
<text text-anchor="middle" x="491" y="-99.8" font-family="Times,serif" font-size="14.00" fill="#000000">ChatRoutingModule</text>
</g>
<!-- ChatRoutingModule&#45;&gt;ChatModule -->
<g id="edge4" class="edge">
<title>ChatRoutingModule&#45;&gt;ChatModule</title>
<path fill="none" stroke="#000000" d="M491,-122.1061C491,-122.1061 491,-140.991 491,-140.991"/>
<polygon fill="#000000" stroke="#000000" points="487.5001,-140.9909 491,-150.991 494.5001,-140.991 487.5001,-140.9909"/>
</g>
<!-- CoreModule -->
<g id="node6" class="node">
<title>CoreModule</title>
<polygon fill="#8dd3c7" stroke="#000000" points="407.2619,-122 404.2619,-126 383.2619,-126 380.2619,-122 320.7381,-122 320.7381,-86 407.2619,-86 407.2619,-122"/>
<text text-anchor="middle" x="364" y="-99.8" font-family="Times,serif" font-size="14.00" fill="#000000">CoreModule</text>
</g>
<!-- CoreModule&#45;&gt;ChatModule -->
<g id="edge5" class="edge">
<title>CoreModule&#45;&gt;ChatModule</title>
<path fill="none" stroke="#000000" d="M364,-122.027C364,-138.3976 364,-160 364,-160 364,-160 438.0036,-160 438.0036,-160"/>
<polygon fill="#000000" stroke="#000000" points="438.0036,-163.5001 448.0036,-160 438.0036,-156.5001 438.0036,-163.5001"/>
</g>
<!-- MaterialModule -->
<g id="node7" class="node">
<title>MaterialModule</title>
<polygon fill="#8dd3c7" stroke="#000000" points="302.4706,-122 299.4706,-126 278.4706,-126 275.4706,-122 195.5294,-122 195.5294,-86 302.4706,-86 302.4706,-122"/>
<text text-anchor="middle" x="249" y="-99.8" font-family="Times,serif" font-size="14.00" fill="#000000">MaterialModule</text>
</g>
<!-- MaterialModule&#45;&gt;ChatModule -->
<g id="edge6" class="edge">
<title>MaterialModule&#45;&gt;ChatModule</title>
<path fill="none" stroke="#000000" d="M249,-122.1061C249,-141.3391 249,-169 249,-169 249,-169 437.7352,-169 437.7352,-169"/>
<polygon fill="#000000" stroke="#000000" points="437.7353,-172.5001 447.7352,-169 437.7352,-165.5001 437.7353,-172.5001"/>
</g>
<!-- SocketioService -->
<g id="node8" class="node">
<title>SocketioService</title>
<ellipse fill="#fdb462" stroke="#000000" cx="98" cy="-104" rx="73.5734" ry="18"/>
<text text-anchor="middle" x="98" y="-99.8" font-family="Times,serif" font-size="14.00" fill="#000000">SocketioService</text>
</g>
<!-- SocketioService&#45;&gt;ChatModule -->
<g id="edge7" class="edge">
<title>SocketioService&#45;&gt;ChatModule</title>
<path fill="none" stroke="#000000" d="M98,-122.2921C98,-144.2057 98,-178 98,-178 98,-178 437.8179,-178 437.8179,-178"/>
<polygon fill="#000000" stroke="#000000" points="437.818,-181.5001 447.8179,-178 437.8179,-174.5001 437.818,-181.5001"/>
</g>
</g>
</svg>
