<?xml version="1.0" encoding="UTF-8" standalone="no"?>
<!DOCTYPE svg PUBLIC "-//W3C//DTD SVG 1.1//EN"
 "http://www.w3.org/Graphics/SVG/1.1/DTD/svg11.dtd">
<!-- Generated by graphviz version 2.40.1 (20161225.0304)
 -->
<!-- Title: dependencies Pages: 1 -->
<svg width="869pt" height="211pt"
 viewBox="0.00 0.00 869.00 211.00" xmlns="http://www.w3.org/2000/svg" xmlns:xlink="http://www.w3.org/1999/xlink">
<g id="graph0" class="graph" transform="scale(1 1) rotate(0) translate(4 207)">
<title>dependencies</title>
<polygon fill="#ffffff" stroke="transparent" points="-4,4 -4,-207 865,-207 865,4 -4,4"/>
<text text-anchor="start" x="409.5091" y="-42.4" font-family="sans-serif" font-weight="bold" font-size="14.00" fill="#000000">Legend</text>
<polygon fill="#ffffb3" stroke="transparent" points="196.5,-10 196.5,-30 216.5,-30 216.5,-10 196.5,-10"/>
<text text-anchor="start" x="220.129" y="-15.4" font-family="sans-serif" font-size="14.00" fill="#000000"> &#160;Declarations</text>
<polygon fill="#8dd3c7" stroke="transparent" points="309.5,-10 309.5,-30 329.5,-30 329.5,-10 309.5,-10"/>
<text text-anchor="start" x="333.2251" y="-15.4" font-family="sans-serif" font-size="14.00" fill="#000000"> &#160;Module</text>
<polygon fill="#80b1d3" stroke="transparent" points="395.5,-10 395.5,-30 415.5,-30 415.5,-10 395.5,-10"/>
<text text-anchor="start" x="419.2812" y="-15.4" font-family="sans-serif" font-size="14.00" fill="#000000"> &#160;Bootstrap</text>
<polygon fill="#fdb462" stroke="transparent" points="492.5,-10 492.5,-30 512.5,-30 512.5,-10 492.5,-10"/>
<text text-anchor="start" x="516.1732" y="-15.4" font-family="sans-serif" font-size="14.00" fill="#000000"> &#160;Providers</text>
<polygon fill="#fb8072" stroke="transparent" points="588.5,-10 588.5,-30 608.5,-30 608.5,-10 588.5,-10"/>
<text text-anchor="start" x="612.2258" y="-15.4" font-family="sans-serif" font-size="14.00" fill="#000000"> &#160;Exports</text>
<g id="clust1" class="cluster">
<title>cluster_ChatModule</title>
<polygon fill="none" stroke="#000000" stroke-dasharray="1,5" points="8,-70 8,-195 853,-195 853,-70 8,-70"/>
</g>
<g id="clust2" class="cluster">
<title>cluster_ChatModule_declarations</title>
<polygon fill="none" stroke="#000000" points="573,-78 573,-130 845,-130 845,-78 573,-78"/>
</g>
<g id="clust5" class="cluster">
<title>cluster_ChatModule_imports</title>
<polygon fill="none" stroke="#000000" points="188,-78 188,-130 565,-130 565,-78 188,-78"/>
</g>
<g id="clust8" class="cluster">
<title>cluster_ChatModule_providers</title>
<polygon fill="none" stroke="#000000" points="16,-78 16,-130 180,-130 180,-78 16,-78"/>
</g>
<!-- ChatComponent -->
<g id="node1" class="node">
<title>ChatComponent</title>
<polygon fill="#ffffb3" stroke="#000000" points="836.7744,-122 729.2256,-122 729.2256,-86 836.7744,-86 836.7744,-122"/>
<text text-anchor="middle" x="783" y="-99.8" font-family="Times,serif" font-size="14.00" fill="#000000">ChatComponent</text>
</g>
<!-- ChatModule -->
<g id="node3" class="node">
<title>ChatModule</title>
<polygon fill="#8dd3c7" stroke="#000000" points="469.9916,-187 466.9916,-191 445.9916,-191 442.9916,-187 384.0084,-187 384.0084,-151 469.9916,-151 469.9916,-187"/>
<text text-anchor="middle" x="427" y="-164.8" font-family="Times,serif" font-size="14.00" fill="#000000">ChatModule</text>
</g>
<!-- ChatComponent&#45;&gt;ChatModule -->
<g id="edge1" class="edge">
<title>ChatComponent&#45;&gt;ChatModule</title>
<path fill="none" stroke="#000000" d="M783,-122.2843C783,-143.3211 783,-175 783,-175 783,-175 480.2967,-175 480.2967,-175"/>
<polygon fill="#000000" stroke="#000000" points="480.2967,-171.5001 470.2967,-175 480.2966,-178.5001 480.2967,-171.5001"/>
</g>
<!-- MessageComponent -->
<g id="node2" class="node">
<title>MessageComponent</title>
<polygon fill="#ffffb3" stroke="#000000" points="711.3104,-122 580.6896,-122 580.6896,-86 711.3104,-86 711.3104,-122"/>
<text text-anchor="middle" x="646" y="-99.8" font-family="Times,serif" font-size="14.00" fill="#000000">MessageComponent</text>
</g>
<!-- MessageComponent&#45;&gt;ChatModule -->
<g id="edge2" class="edge">
<title>MessageComponent&#45;&gt;ChatModule</title>
<path fill="none" stroke="#000000" d="M646,-122.0225C646,-139.3734 646,-163 646,-163 646,-163 480.0061,-163 480.0061,-163"/>
<polygon fill="#000000" stroke="#000000" points="480.0061,-159.5001 470.0061,-163 480.006,-166.5001 480.0061,-159.5001"/>
</g>
<!-- ChatRoutingModule -->
<g id="node4" class="node">
<title>ChatRoutingModule</title>
<polygon fill="#8dd3c7" stroke="#000000" points="556.6094,-122 553.6094,-126 532.6094,-126 529.6094,-122 425.3906,-122 425.3906,-86 556.6094,-86 556.6094,-122"/>
<text text-anchor="middle" x="491" y="-99.8" font-family="Times,serif" font-size="14.00" fill="#000000">ChatRoutingModule</text>
</g>
<!-- ChatRoutingModule&#45;&gt;ChatModule -->
<g id="edge3" class="edge">
<title>ChatRoutingModule&#45;&gt;ChatModule</title>
<path fill="none" stroke="#000000" d="M447.7206,-122.1061C447.7206,-122.1061 447.7206,-140.991 447.7206,-140.991"/>
<polygon fill="#000000" stroke="#000000" points="444.2206,-140.9909 447.7206,-150.991 451.2206,-140.991 444.2206,-140.9909"/>
</g>
<!-- CoreModule -->
<g id="node5" class="node">
<title>CoreModule</title>
<polygon fill="#8dd3c7" stroke="#000000" points="407.2619,-122 404.2619,-126 383.2619,-126 380.2619,-122 320.7381,-122 320.7381,-86 407.2619,-86 407.2619,-122"/>
<text text-anchor="middle" x="364" y="-99.8" font-family="Times,serif" font-size="14.00" fill="#000000">CoreModule</text>
</g>
<!-- CoreModule&#45;&gt;ChatModule -->
<g id="edge4" class="edge">
<title>CoreModule&#45;&gt;ChatModule</title>
<path fill="none" stroke="#000000" d="M395.6925,-122.1061C395.6925,-122.1061 395.6925,-140.991 395.6925,-140.991"/>
<polygon fill="#000000" stroke="#000000" points="392.1926,-140.9909 395.6925,-150.991 399.1926,-140.991 392.1926,-140.9909"/>
</g>
<!-- MaterialModule -->
<g id="node6" class="node">
<title>MaterialModule</title>
<polygon fill="#8dd3c7" stroke="#000000" points="302.4706,-122 299.4706,-126 278.4706,-126 275.4706,-122 195.5294,-122 195.5294,-86 302.4706,-86 302.4706,-122"/>
<text text-anchor="middle" x="249" y="-99.8" font-family="Times,serif" font-size="14.00" fill="#000000">MaterialModule</text>
</g>
<!-- MaterialModule&#45;&gt;ChatModule -->
<g id="edge5" class="edge">
<title>MaterialModule&#45;&gt;ChatModule</title>
<path fill="none" stroke="#000000" d="M249,-122.0225C249,-139.3734 249,-163 249,-163 249,-163 373.9112,-163 373.9112,-163"/>
<polygon fill="#000000" stroke="#000000" points="373.9112,-166.5001 383.9112,-163 373.9111,-159.5001 373.9112,-166.5001"/>
</g>
<!-- SocketioService -->
<g id="node7" class="node">
<title>SocketioService</title>
<ellipse fill="#fdb462" stroke="#000000" cx="98" cy="-104" rx="73.5734" ry="18"/>
<text text-anchor="middle" x="98" y="-99.8" font-family="Times,serif" font-size="14.00" fill="#000000">SocketioService</text>
</g>
<!-- SocketioService&#45;&gt;ChatModule -->
<g id="edge6" class="edge">
<title>SocketioService&#45;&gt;ChatModule</title>
<path fill="none" stroke="#000000" d="M98,-122.2843C98,-143.3211 98,-175 98,-175 98,-175 373.989,-175 373.989,-175"/>
<polygon fill="#000000" stroke="#000000" points="373.989,-178.5001 383.989,-175 373.989,-171.5001 373.989,-178.5001"/>
</g>
</g>
</svg>
