<?xml version="1.0" encoding="UTF-8" standalone="no"?>
<!DOCTYPE svg PUBLIC "-//W3C//DTD SVG 1.1//EN"
 "http://www.w3.org/Graphics/SVG/1.1/DTD/svg11.dtd">
<!-- Generated by graphviz version 2.40.1 (20161225.0304)
 -->
<!-- Title: dependencies Pages: 1 -->
<svg width="770pt" height="284pt"
 viewBox="0.00 0.00 770.00 284.00" xmlns="http://www.w3.org/2000/svg" xmlns:xlink="http://www.w3.org/1999/xlink">
<g id="graph0" class="graph" transform="scale(1 1) rotate(0) translate(4 280)">
<title>dependencies</title>
<polygon fill="#ffffff" stroke="transparent" points="-4,4 -4,-280 766,-280 766,4 -4,4"/>
<text text-anchor="start" x="360.0091" y="-42.4" font-family="sans-serif" font-weight="bold" font-size="14.00" fill="#000000">Legend</text>
<polygon fill="#ffffb3" stroke="transparent" points="147,-10 147,-30 167,-30 167,-10 147,-10"/>
<text text-anchor="start" x="170.629" y="-15.4" font-family="sans-serif" font-size="14.00" fill="#000000"> &#160;Declarations</text>
<polygon fill="#8dd3c7" stroke="transparent" points="260,-10 260,-30 280,-30 280,-10 260,-10"/>
<text text-anchor="start" x="283.7251" y="-15.4" font-family="sans-serif" font-size="14.00" fill="#000000"> &#160;Module</text>
<polygon fill="#80b1d3" stroke="transparent" points="346,-10 346,-30 366,-30 366,-10 346,-10"/>
<text text-anchor="start" x="369.7812" y="-15.4" font-family="sans-serif" font-size="14.00" fill="#000000"> &#160;Bootstrap</text>
<polygon fill="#fdb462" stroke="transparent" points="443,-10 443,-30 463,-30 463,-10 443,-10"/>
<text text-anchor="start" x="466.6732" y="-15.4" font-family="sans-serif" font-size="14.00" fill="#000000"> &#160;Providers</text>
<polygon fill="#fb8072" stroke="transparent" points="539,-10 539,-30 559,-30 559,-10 539,-10"/>
<text text-anchor="start" x="562.7258" y="-15.4" font-family="sans-serif" font-size="14.00" fill="#000000"> &#160;Exports</text>
<g id="clust1" class="cluster">
<title>cluster_AppModule</title>
<polygon fill="none" stroke="#000000" stroke-dasharray="1,5" points="8,-70 8,-268 754,-268 754,-70 8,-70"/>
</g>
<g id="clust2" class="cluster">
<title>cluster_AppModule_declarations</title>
<polygon fill="none" stroke="#000000" points="624,-78 624,-130 746,-130 746,-78 624,-78"/>
</g>
<g id="clust4" class="cluster">
<title>cluster_AppModule_imports</title>
<polygon fill="none" stroke="#000000" points="16,-78 16,-130 616,-130 616,-78 16,-78"/>
</g>
<g id="clust6" class="cluster">
<title>cluster_AppModule_bootstrap</title>
<polygon fill="none" stroke="#000000" points="305,-208 305,-260 429,-260 429,-208 305,-208"/>
</g>
<!-- AppComponent -->
<g id="node1" class="node">
<title>AppComponent</title>
<polygon fill="#ffffb3" stroke="#000000" points="737.9399,-122 632.0601,-122 632.0601,-86 737.9399,-86 737.9399,-122"/>
<text text-anchor="middle" x="685" y="-99.8" font-family="Times,serif" font-size="14.00" fill="#000000">AppComponent</text>
</g>
<!-- AppModule -->
<g id="node2" class="node">
<title>AppModule</title>
<polygon fill="#8dd3c7" stroke="#000000" points="408.6571,-187 405.6571,-191 384.6571,-191 381.6571,-187 325.3429,-187 325.3429,-151 408.6571,-151 408.6571,-187"/>
<text text-anchor="middle" x="367" y="-164.8" font-family="Times,serif" font-size="14.00" fill="#000000">AppModule</text>
</g>
<!-- AppComponent&#45;&gt;AppModule -->
<g id="edge1" class="edge">
<title>AppComponent&#45;&gt;AppModule</title>
<path fill="none" stroke="#000000" d="M685,-122.2843C685,-143.3211 685,-175 685,-175 685,-175 418.8999,-175 418.8999,-175"/>
<polygon fill="#000000" stroke="#000000" points="418.9,-171.5001 408.8999,-175 418.8999,-178.5001 418.9,-171.5001"/>
</g>
<!-- AppComponent  -->
<g id="node8" class="node">
<title>AppComponent </title>
<polygon fill="#80b1d3" stroke="#000000" points="421.439,-252 312.561,-252 312.561,-216 421.439,-216 421.439,-252"/>
<text text-anchor="middle" x="367" y="-229.8" font-family="Times,serif" font-size="14.00" fill="#000000">AppComponent </text>
</g>
<!-- AppModule&#45;&gt;AppComponent  -->
<g id="edge7" class="edge">
<title>AppModule&#45;&gt;AppComponent </title>
<path fill="none" stroke="#000000" stroke-dasharray="1,5" d="M367,-187.1061C367,-187.1061 367,-205.991 367,-205.991"/>
<polygon fill="#000000" stroke="#000000" points="363.5001,-205.9909 367,-215.991 370.5001,-205.991 363.5001,-205.9909"/>
</g>
<!-- AppRoutingModule -->
<g id="node3" class="node">
<title>AppRoutingModule</title>
<polygon fill="#8dd3c7" stroke="#000000" points="608.2744,-122 605.2744,-126 584.2744,-126 581.2744,-122 479.7256,-122 479.7256,-86 608.2744,-86 608.2744,-122"/>
<text text-anchor="middle" x="544" y="-99.8" font-family="Times,serif" font-size="14.00" fill="#000000">AppRoutingModule</text>
</g>
<!-- AppRoutingModule&#45;&gt;AppModule -->
<g id="edge2" class="edge">
<title>AppRoutingModule&#45;&gt;AppModule</title>
<path fill="none" stroke="#000000" d="M544,-122.0225C544,-139.3734 544,-163 544,-163 544,-163 418.9465,-163 418.9465,-163"/>
<polygon fill="#000000" stroke="#000000" points="418.9466,-159.5001 408.9465,-163 418.9465,-166.5001 418.9466,-159.5001"/>
</g>
<!-- ChatModule -->
<g id="node4" class="node">
<title>ChatModule</title>
<polygon fill="#8dd3c7" stroke="#000000" points="461.9916,-122 458.9916,-126 437.9916,-126 434.9916,-122 376.0084,-122 376.0084,-86 461.9916,-86 461.9916,-122"/>
<text text-anchor="middle" x="419" y="-99.8" font-family="Times,serif" font-size="14.00" fill="#000000">ChatModule</text>
</g>
<!-- ChatModule&#45;&gt;AppModule -->
<g id="edge3" class="edge">
<title>ChatModule&#45;&gt;AppModule</title>
<path fill="none" stroke="#000000" d="M392.4162,-122.1061C392.4162,-122.1061 392.4162,-140.991 392.4162,-140.991"/>
<polygon fill="#000000" stroke="#000000" points="388.9163,-140.9909 392.4162,-150.991 395.9163,-140.991 388.9163,-140.9909"/>
</g>
<!-- CoreModule -->
<g id="node5" class="node">
<title>CoreModule</title>
<polygon fill="#8dd3c7" stroke="#000000" points="358.2619,-122 355.2619,-126 334.2619,-126 331.2619,-122 271.7381,-122 271.7381,-86 358.2619,-86 358.2619,-122"/>
<text text-anchor="middle" x="315" y="-99.8" font-family="Times,serif" font-size="14.00" fill="#000000">CoreModule</text>
</g>
<!-- CoreModule&#45;&gt;AppModule -->
<g id="edge4" class="edge">
<title>CoreModule&#45;&gt;AppModule</title>
<path fill="none" stroke="#000000" d="M341.7763,-122.1061C341.7763,-122.1061 341.7763,-140.991 341.7763,-140.991"/>
<polygon fill="#000000" stroke="#000000" points="338.2764,-140.9909 341.7763,-150.991 345.2764,-140.991 338.2764,-140.9909"/>
</g>
<!-- MaterialModule -->
<g id="node6" class="node">
<title>MaterialModule</title>
<polygon fill="#8dd3c7" stroke="#000000" points="253.4706,-122 250.4706,-126 229.4706,-126 226.4706,-122 146.5294,-122 146.5294,-86 253.4706,-86 253.4706,-122"/>
<text text-anchor="middle" x="200" y="-99.8" font-family="Times,serif" font-size="14.00" fill="#000000">MaterialModule</text>
</g>
<!-- MaterialModule&#45;&gt;AppModule -->
<g id="edge5" class="edge">
<title>MaterialModule&#45;&gt;AppModule</title>
<path fill="none" stroke="#000000" d="M200,-122.0225C200,-139.3734 200,-163 200,-163 200,-163 315.2896,-163 315.2896,-163"/>
<polygon fill="#000000" stroke="#000000" points="315.2897,-166.5001 325.2896,-163 315.2896,-159.5001 315.2897,-166.5001"/>
</g>
<!-- SettingsModule -->
<g id="node7" class="node">
<title>SettingsModule</title>
<polygon fill="#8dd3c7" stroke="#000000" points="128.1639,-122 125.1639,-126 104.1639,-126 101.1639,-122 23.8361,-122 23.8361,-86 128.1639,-86 128.1639,-122"/>
<text text-anchor="middle" x="76" y="-99.8" font-family="Times,serif" font-size="14.00" fill="#000000">SettingsModule</text>
</g>
<!-- SettingsModule&#45;&gt;AppModule -->
<g id="edge6" class="edge">
<title>SettingsModule&#45;&gt;AppModule</title>
<path fill="none" stroke="#000000" d="M76,-122.2843C76,-143.3211 76,-175 76,-175 76,-175 315.3068,-175 315.3068,-175"/>
<polygon fill="#000000" stroke="#000000" points="315.3068,-178.5001 325.3068,-175 315.3068,-171.5001 315.3068,-178.5001"/>
</g>
</g>
</svg>
