<?xml version="1.0" encoding="UTF-8" standalone="no"?>
<!DOCTYPE svg PUBLIC "-//W3C//DTD SVG 1.1//EN"
 "http://www.w3.org/Graphics/SVG/1.1/DTD/svg11.dtd">
<!-- Generated by graphviz version 2.40.1 (20161225.0304)
 -->
<!-- Title: dependencies Pages: 1 -->
<svg width="1602pt" height="428pt"
 viewBox="0.00 0.00 1602.00 428.00" xmlns="http://www.w3.org/2000/svg" xmlns:xlink="http://www.w3.org/1999/xlink">
<g id="graph0" class="graph" transform="scale(1 1) rotate(0) translate(4 424)">
<title>dependencies</title>
<polygon fill="#ffffff" stroke="transparent" points="-4,4 -4,-424 1598,-424 1598,4 -4,4"/>
<text text-anchor="start" x="776.0091" y="-42.4" font-family="sans-serif" font-weight="bold" font-size="14.00" fill="#000000">Legend</text>
<polygon fill="#ffffb3" stroke="transparent" points="563,-10 563,-30 583,-30 583,-10 563,-10"/>
<text text-anchor="start" x="586.629" y="-15.4" font-family="sans-serif" font-size="14.00" fill="#000000"> &#160;Declarations</text>
<polygon fill="#8dd3c7" stroke="transparent" points="676,-10 676,-30 696,-30 696,-10 676,-10"/>
<text text-anchor="start" x="699.7251" y="-15.4" font-family="sans-serif" font-size="14.00" fill="#000000"> &#160;Module</text>
<polygon fill="#80b1d3" stroke="transparent" points="762,-10 762,-30 782,-30 782,-10 762,-10"/>
<text text-anchor="start" x="785.7812" y="-15.4" font-family="sans-serif" font-size="14.00" fill="#000000"> &#160;Bootstrap</text>
<polygon fill="#fdb462" stroke="transparent" points="859,-10 859,-30 879,-30 879,-10 859,-10"/>
<text text-anchor="start" x="882.6732" y="-15.4" font-family="sans-serif" font-size="14.00" fill="#000000"> &#160;Providers</text>
<polygon fill="#fb8072" stroke="transparent" points="955,-10 955,-30 975,-30 975,-10 955,-10"/>
<text text-anchor="start" x="978.7258" y="-15.4" font-family="sans-serif" font-size="14.00" fill="#000000"> &#160;Exports</text>
<g id="clust1" class="cluster">
<title>cluster_AppModule</title>
<polygon fill="none" stroke="#000000" stroke-dasharray="1,5" points="8,-146 8,-412 528,-412 528,-146 8,-146"/>
</g>
<g id="clust2" class="cluster">
<title>cluster_AppModule_declarations</title>
<polygon fill="none" stroke="#000000" points="398,-222 398,-274 520,-274 520,-222 398,-222"/>
</g>
<g id="clust4" class="cluster">
<title>cluster_AppModule_imports</title>
<polygon fill="none" stroke="#000000" points="16,-154 16,-274 390,-274 390,-154 16,-154"/>
</g>
<g id="clust6" class="cluster">
<title>cluster_AppModule_bootstrap</title>
<polygon fill="none" stroke="#000000" points="124,-352 124,-404 248,-404 248,-352 124,-352"/>
</g>
<g id="clust14" class="cluster">
<title>cluster_ChatModule</title>
<polygon fill="none" stroke="#000000" stroke-dasharray="1,5" points="536,-146 536,-214 1246,-214 1246,-146 536,-146"/>
</g>
<g id="clust15" class="cluster">
<title>cluster_ChatModule_declarations</title>
<polygon fill="none" stroke="#000000" points="872,-154 872,-206 1238,-206 1238,-154 872,-154"/>
</g>
<g id="clust19" class="cluster">
<title>cluster_ChatModule_imports</title>
<polygon fill="none" stroke="#000000" points="716,-154 716,-206 864,-206 864,-154 716,-154"/>
</g>
<g id="clust22" class="cluster">
<title>cluster_ChatModule_providers</title>
<polygon fill="none" stroke="#000000" points="544,-154 544,-206 708,-206 708,-154 544,-154"/>
</g>
<g id="clust29" class="cluster">
<title>cluster_CoreModule</title>
<polygon fill="none" stroke="#000000" stroke-dasharray="1,5" points="42,-70 42,-138 372,-138 372,-70 42,-70"/>
</g>
<g id="clust31" class="cluster">
<title>cluster_CoreModule_imports</title>
<polygon fill="none" stroke="#000000" points="256,-78 256,-130 364,-130 364,-78 256,-78"/>
</g>
<g id="clust34" class="cluster">
<title>cluster_CoreModule_providers</title>
<polygon fill="none" stroke="#000000" points="50,-78 50,-130 248,-130 248,-78 50,-78"/>
</g>
<g id="clust41" class="cluster">
<title>cluster_SettingsModule</title>
<polygon fill="none" stroke="#000000" stroke-dasharray="1,5" points="1254,-146 1254,-214 1586,-214 1586,-146 1254,-146"/>
</g>
<g id="clust42" class="cluster">
<title>cluster_SettingsModule_declarations</title>
<polygon fill="none" stroke="#000000" points="1436,-154 1436,-206 1578,-206 1578,-154 1436,-154"/>
</g>
<g id="clust44" class="cluster">
<title>cluster_SettingsModule_imports</title>
<polygon fill="none" stroke="#000000" points="1262,-154 1262,-206 1428,-206 1428,-154 1262,-154"/>
</g>
<!-- AppComponent -->
<g id="node1" class="node">
<title>AppComponent</title>
<polygon fill="#ffffb3" stroke="#000000" points="511.9399,-266 406.0601,-266 406.0601,-230 511.9399,-230 511.9399,-266"/>
<text text-anchor="middle" x="459" y="-243.8" font-family="Times,serif" font-size="14.00" fill="#000000">AppComponent</text>
</g>
<!-- AppModule -->
<g id="node2" class="node">
<title>AppModule</title>
<polygon fill="#8dd3c7" stroke="#000000" points="227.6571,-331 224.6571,-335 203.6571,-335 200.6571,-331 144.3429,-331 144.3429,-295 227.6571,-295 227.6571,-331"/>
<text text-anchor="middle" x="186" y="-308.8" font-family="Times,serif" font-size="14.00" fill="#000000">AppModule</text>
</g>
<!-- AppComponent&#45;&gt;AppModule -->
<g id="edge1" class="edge">
<title>AppComponent&#45;&gt;AppModule</title>
<path fill="none" stroke="#000000" d="M459,-266.2921C459,-288.2057 459,-322 459,-322 459,-322 237.76,-322 237.76,-322"/>
<polygon fill="#000000" stroke="#000000" points="237.76,-318.5001 227.76,-322 237.76,-325.5001 237.76,-318.5001"/>
</g>
<!-- AppComponent  -->
<g id="node8" class="node">
<title>AppComponent </title>
<polygon fill="#80b1d3" stroke="#000000" points="240.439,-396 131.561,-396 131.561,-360 240.439,-360 240.439,-396"/>
<text text-anchor="middle" x="186" y="-373.8" font-family="Times,serif" font-size="14.00" fill="#000000">AppComponent </text>
</g>
<!-- AppModule&#45;&gt;AppComponent  -->
<g id="edge7" class="edge">
<title>AppModule&#45;&gt;AppComponent </title>
<path fill="none" stroke="#000000" stroke-dasharray="1,5" d="M186,-331.1061C186,-331.1061 186,-349.991 186,-349.991"/>
<polygon fill="#000000" stroke="#000000" points="182.5001,-349.9909 186,-359.991 189.5001,-349.991 182.5001,-349.9909"/>
</g>
<!-- AppRoutingModule -->
<g id="node3" class="node">
<title>AppRoutingModule</title>
<polygon fill="#8dd3c7" stroke="#000000" points="152.2744,-198 149.2744,-202 128.2744,-202 125.2744,-198 23.7256,-198 23.7256,-162 152.2744,-162 152.2744,-198"/>
<text text-anchor="middle" x="88" y="-175.8" font-family="Times,serif" font-size="14.00" fill="#000000">AppRoutingModule</text>
</g>
<!-- AppRoutingModule&#45;&gt;AppModule -->
<g id="edge2" class="edge">
<title>AppRoutingModule&#45;&gt;AppModule</title>
<path fill="none" stroke="#000000" d="M148.2795,-198.2142C148.2795,-198.2142 148.2795,-284.579 148.2795,-284.579"/>
<polygon fill="#000000" stroke="#000000" points="144.7795,-284.5789 148.2795,-294.579 151.7795,-284.579 144.7795,-284.5789"/>
</g>
<!-- ChatModule -->
<g id="node4" class="node">
<title>ChatModule</title>
<polygon fill="#8dd3c7" stroke="#000000" points="259.9916,-266 256.9916,-270 235.9916,-270 232.9916,-266 174.0084,-266 174.0084,-230 259.9916,-230 259.9916,-266"/>
<text text-anchor="middle" x="217" y="-243.8" font-family="Times,serif" font-size="14.00" fill="#000000">ChatModule</text>
</g>
<!-- ChatModule&#45;&gt;AppModule -->
<g id="edge3" class="edge">
<title>ChatModule&#45;&gt;AppModule</title>
<path fill="none" stroke="#000000" d="M200.9162,-266.1061C200.9162,-266.1061 200.9162,-284.991 200.9162,-284.991"/>
<polygon fill="#000000" stroke="#000000" points="197.4163,-284.9909 200.9162,-294.991 204.4163,-284.991 197.4163,-284.9909"/>
</g>
<!-- CoreModule -->
<g id="node5" class="node">
<title>CoreModule</title>
<polygon fill="#8dd3c7" stroke="#000000" points="257.2619,-198 254.2619,-202 233.2619,-202 230.2619,-198 170.7381,-198 170.7381,-162 257.2619,-162 257.2619,-198"/>
<text text-anchor="middle" x="214" y="-175.8" font-family="Times,serif" font-size="14.00" fill="#000000">CoreModule</text>
</g>
<!-- CoreModule&#45;&gt;AppModule -->
<g id="edge4" class="edge">
<title>CoreModule&#45;&gt;AppModule</title>
<path fill="none" stroke="#000000" d="M170.6474,-180C165.2072,-180 161.5032,-180 161.5032,-180 161.5032,-180 161.5032,-284.7858 161.5032,-284.7858"/>
<polygon fill="#000000" stroke="#000000" points="158.0032,-284.7858 161.5032,-294.7858 165.0032,-284.7858 158.0032,-284.7858"/>
</g>
<!-- CoreModule&#45;&gt;ChatModule -->
<g id="edge12" class="edge">
<title>CoreModule&#45;&gt;ChatModule</title>
<path fill="none" stroke="#000000" d="M185.9151,-198.2228C185.9151,-198.2228 185.9151,-219.7269 185.9151,-219.7269"/>
<polygon fill="#000000" stroke="#000000" points="182.4152,-219.7269 185.9151,-229.7269 189.4152,-219.727 182.4152,-219.7269"/>
</g>
<!-- MaterialModule -->
<g id="node6" class="node">
<title>MaterialModule</title>
<polygon fill="#8dd3c7" stroke="#000000" points="382.4706,-198 379.4706,-202 358.4706,-202 355.4706,-198 275.5294,-198 275.5294,-162 382.4706,-162 382.4706,-198"/>
<text text-anchor="middle" x="329" y="-175.8" font-family="Times,serif" font-size="14.00" fill="#000000">MaterialModule</text>
</g>
<!-- MaterialModule&#45;&gt;AppModule -->
<g id="edge5" class="edge">
<title>MaterialModule&#45;&gt;AppModule</title>
<path fill="none" stroke="#000000" d="M275.4233,-189C273.7012,-189 272.7083,-189 272.7083,-189 272.7083,-189 272.7083,-304 272.7083,-304 272.7083,-304 237.8302,-304 237.8302,-304"/>
<polygon fill="#000000" stroke="#000000" points="237.8303,-300.5001 227.8302,-304 237.8302,-307.5001 237.8303,-300.5001"/>
</g>
<!-- MaterialModule&#45;&gt;ChatModule -->
<g id="edge13" class="edge">
<title>MaterialModule&#45;&gt;ChatModule</title>
<path fill="none" stroke="#000000" d="M275.3557,-180C271.9795,-180 269.9018,-180 269.9018,-180 269.9018,-180 269.9018,-248 269.9018,-248 269.9018,-248 268.9315,-248 268.9315,-248"/>
<polygon fill="#000000" stroke="#000000" points="270.1988,-244.5001 260.1988,-248 270.1988,-251.5001 270.1988,-244.5001"/>
</g>
<!-- SettingsModule -->
<g id="node7" class="node">
<title>SettingsModule</title>
<polygon fill="#8dd3c7" stroke="#000000" points="382.1639,-266 379.1639,-270 358.1639,-270 355.1639,-266 277.8361,-266 277.8361,-230 382.1639,-230 382.1639,-266"/>
<text text-anchor="middle" x="330" y="-243.8" font-family="Times,serif" font-size="14.00" fill="#000000">SettingsModule</text>
</g>
<!-- MaterialModule&#45;&gt;SettingsModule -->
<g id="edge18" class="edge">
<title>MaterialModule&#45;&gt;SettingsModule</title>
<path fill="none" stroke="#000000" d="M303.8342,-198.2228C303.8342,-198.2228 303.8342,-219.7269 303.8342,-219.7269"/>
<polygon fill="#000000" stroke="#000000" points="300.3342,-219.7269 303.8342,-229.7269 307.3342,-219.727 300.3342,-219.7269"/>
</g>
<!-- SettingsModule&#45;&gt;AppModule -->
<g id="edge6" class="edge">
<title>SettingsModule&#45;&gt;AppModule</title>
<path fill="none" stroke="#000000" d="M330,-266.1061C330,-285.3391 330,-313 330,-313 330,-313 238.0379,-313 238.0379,-313"/>
<polygon fill="#000000" stroke="#000000" points="238.0379,-309.5001 228.0379,-313 238.0378,-316.5001 238.0379,-309.5001"/>
</g>
<!-- ChatComponent -->
<g id="node9" class="node">
<title>ChatComponent</title>
<polygon fill="#ffffb3" stroke="#000000" points="987.7744,-198 880.2256,-198 880.2256,-162 987.7744,-162 987.7744,-198"/>
<text text-anchor="middle" x="934" y="-175.8" font-family="Times,serif" font-size="14.00" fill="#000000">ChatComponent</text>
</g>
<!-- ChatComponent&#45;&gt;ChatModule -->
<g id="edge8" class="edge">
<title>ChatComponent&#45;&gt;ChatModule</title>
<path fill="none" stroke="#000000" d="M934,-198.1432C934,-204.4611 934,-210 934,-210 934,-210 221.648,-210 221.648,-210 221.648,-210 221.648,-219.8903 221.648,-219.8903"/>
<polygon fill="#000000" stroke="#000000" points="218.1481,-219.8903 221.648,-229.8903 225.1481,-219.8904 218.1481,-219.8903"/>
</g>
<!-- MessageComponent -->
<g id="node10" class="node">
<title>MessageComponent</title>
<polygon fill="#ffffb3" stroke="#000000" points="1230.3104,-198 1099.6896,-198 1099.6896,-162 1230.3104,-162 1230.3104,-198"/>
<text text-anchor="middle" x="1165" y="-175.8" font-family="Times,serif" font-size="14.00" fill="#000000">MessageComponent</text>
</g>
<!-- MessageComponent&#45;&gt;ChatModule -->
<g id="edge9" class="edge">
<title>MessageComponent&#45;&gt;ChatModule</title>
<path fill="none" stroke="#000000" d="M1165,-198.1097C1165,-207.897 1165,-218 1165,-218 1165,-218 245.4699,-218 245.4699,-218 245.4699,-218 245.4699,-219.8568 245.4699,-219.8568"/>
<polygon fill="#000000" stroke="#000000" points="241.97,-219.8568 245.4699,-229.8568 248.97,-219.8568 241.97,-219.8568"/>
</g>
<!-- ParserPipe -->
<g id="node11" class="node">
<title>ParserPipe</title>
<polygon fill="#ffffb3" stroke="#000000" points="1081.8655,-198 1006.1345,-198 1006.1345,-162 1081.8655,-162 1081.8655,-198"/>
<text text-anchor="middle" x="1044" y="-175.8" font-family="Times,serif" font-size="14.00" fill="#000000">ParserPipe</text>
</g>
<!-- ParserPipe&#45;&gt;ChatModule -->
<g id="edge10" class="edge">
<title>ParserPipe&#45;&gt;ChatModule</title>
<path fill="none" stroke="#000000" d="M1044,-198.1944C1044,-206.2782 1044,-214 1044,-214 1044,-214 233.5589,-214 233.5589,-214 233.5589,-214 233.5589,-219.8056 233.5589,-219.8056"/>
<polygon fill="#000000" stroke="#000000" points="230.059,-219.8055 233.5589,-229.8056 237.059,-219.8056 230.059,-219.8055"/>
</g>
<!-- ChatRoutingModule -->
<g id="node12" class="node">
<title>ChatRoutingModule</title>
<polygon fill="#8dd3c7" stroke="#000000" points="855.6094,-198 852.6094,-202 831.6094,-202 828.6094,-198 724.3906,-198 724.3906,-162 855.6094,-162 855.6094,-198"/>
<text text-anchor="middle" x="790" y="-175.8" font-family="Times,serif" font-size="14.00" fill="#000000">ChatRoutingModule</text>
</g>
<!-- ChatRoutingModule&#45;&gt;ChatModule -->
<g id="edge11" class="edge">
<title>ChatRoutingModule&#45;&gt;ChatModule</title>
<path fill="none" stroke="#000000" d="M790,-198.0579C790,-202.4945 790,-206 790,-206 790,-206 209.737,-206 209.737,-206 209.737,-206 209.737,-219.9445 209.737,-219.9445"/>
<polygon fill="#000000" stroke="#000000" points="206.2371,-219.9444 209.737,-229.9445 213.2371,-219.9445 206.2371,-219.9444"/>
</g>
<!-- SocketioService -->
<g id="node13" class="node">
<title>SocketioService</title>
<ellipse fill="#fdb462" stroke="#000000" cx="626" cy="-180" rx="73.5734" ry="18"/>
<text text-anchor="middle" x="626" y="-175.8" font-family="Times,serif" font-size="14.00" fill="#000000">SocketioService</text>
</g>
<!-- SocketioService&#45;&gt;ChatModule -->
<g id="edge14" class="edge">
<title>SocketioService&#45;&gt;ChatModule</title>
<path fill="none" stroke="#000000" d="M626,-198.1679C626,-200.4478 626,-202 626,-202 626,-202 197.8261,-202 197.8261,-202 197.8261,-202 197.8261,-219.8196 197.8261,-219.8196"/>
<polygon fill="#000000" stroke="#000000" points="194.3262,-219.8195 197.8261,-229.8196 201.3262,-219.8196 194.3262,-219.8195"/>
</g>
<!-- !environment -->
<g id="node14" class="node">
<title>!environment</title>
<polygon fill="#8dd3c7" stroke="#000000" points="355.9232,-122 352.9232,-126 331.9232,-126 328.9232,-122 264.0768,-122 264.0768,-86 355.9232,-86 355.9232,-122"/>
<text text-anchor="middle" x="310" y="-99.8" font-family="Times,serif" font-size="14.00" fill="#000000">!environment</text>
</g>
<!-- !environment&#45;&gt;CoreModule -->
<g id="edge15" class="edge">
<title>!environment&#45;&gt;CoreModule</title>
<path fill="none" stroke="#000000" d="M267.0954,-122.308C267.0954,-142.1455 267.0954,-171 267.0954,-171 267.0954,-171 266.1215,-171 266.1215,-171"/>
<polygon fill="#000000" stroke="#000000" points="267.3569,-167.5001 257.3568,-171 267.3568,-174.5001 267.3569,-167.5001"/>
</g>
<!-- LocalStorageService -->
<g id="node15" class="node">
<title>LocalStorageService</title>
<ellipse fill="#fdb462" stroke="#000000" cx="149" cy="-104" rx="91.4481" ry="18"/>
<text text-anchor="middle" x="149" y="-99.8" font-family="Times,serif" font-size="14.00" fill="#000000">LocalStorageService</text>
</g>
<!-- LocalStorageService&#45;&gt;CoreModule -->
<g id="edge16" class="edge">
<title>LocalStorageService&#45;&gt;CoreModule</title>
<path fill="none" stroke="#000000" d="M205.5466,-118.295C205.5466,-118.295 205.5466,-151.7342 205.5466,-151.7342"/>
<polygon fill="#000000" stroke="#000000" points="202.0467,-151.7341 205.5466,-161.7342 209.0467,-151.7342 202.0467,-151.7341"/>
</g>
<!-- SettingsComponent -->
<g id="node16" class="node">
<title>SettingsComponent</title>
<polygon fill="#ffffb3" stroke="#000000" points="1570.4468,-198 1443.5532,-198 1443.5532,-162 1570.4468,-162 1570.4468,-198"/>
<text text-anchor="middle" x="1507" y="-175.8" font-family="Times,serif" font-size="14.00" fill="#000000">SettingsComponent</text>
</g>
<!-- SettingsComponent&#45;&gt;SettingsModule -->
<g id="edge17" class="edge">
<title>SettingsComponent&#45;&gt;SettingsModule</title>
<path fill="none" stroke="#000000" d="M1507,-198.1804C1507,-211.0382 1507,-226 1507,-226 1507,-226 356.1659,-226 356.1659,-226 356.1659,-226 356.1659,-226.3832 356.1659,-226.3832"/>
<polygon fill="#000000" stroke="#000000" points="352.6661,-219.832 356.1659,-229.8321 359.6661,-219.8322 352.6661,-219.832"/>
</g>
<!-- SettingsRoutingModule -->
<g id="node17" class="node">
<title>SettingsRoutingModule</title>
<polygon fill="#8dd3c7" stroke="#000000" points="1419.7814,-198 1416.7814,-202 1395.7814,-202 1392.7814,-198 1270.2186,-198 1270.2186,-162 1419.7814,-162 1419.7814,-198"/>
<text text-anchor="middle" x="1345" y="-175.8" font-family="Times,serif" font-size="14.00" fill="#000000">SettingsRoutingModule</text>
</g>
<!-- SettingsRoutingModule&#45;&gt;SettingsModule -->
<g id="edge19" class="edge">
<title>SettingsRoutingModule&#45;&gt;SettingsModule</title>
<path fill="none" stroke="#000000" d="M1345,-198.0555C1345,-209.439 1345,-222 1345,-222 1345,-222 330,-222 330,-222 330,-222 330,-222.7942 330,-222.7942"/>
<polygon fill="#000000" stroke="#000000" points="326.5001,-219.9421 330,-229.9421 333.5001,-219.9422 326.5001,-219.9421"/>
</g>
</g>
</svg>
