<?xml version="1.0" encoding="UTF-8" standalone="no"?>
<!DOCTYPE svg PUBLIC "-//W3C//DTD SVG 1.1//EN"
 "http://www.w3.org/Graphics/SVG/1.1/DTD/svg11.dtd">
<!-- Generated by graphviz version 2.40.1 (20161225.0304)
 -->
<!-- Title: dependencies Pages: 1 -->
<svg width="1576pt" height="428pt"
 viewBox="0.00 0.00 1576.00 428.00" xmlns="http://www.w3.org/2000/svg" xmlns:xlink="http://www.w3.org/1999/xlink">
<g id="graph0" class="graph" transform="scale(1 1) rotate(0) translate(4 424)">
<title>dependencies</title>
<polygon fill="#ffffff" stroke="transparent" points="-4,4 -4,-424 1572,-424 1572,4 -4,4"/>
<text text-anchor="start" x="763.0091" y="-42.4" font-family="sans-serif" font-weight="bold" font-size="14.00" fill="#000000">Legend</text>
<polygon fill="#ffffb3" stroke="transparent" points="550,-10 550,-30 570,-30 570,-10 550,-10"/>
<text text-anchor="start" x="573.629" y="-15.4" font-family="sans-serif" font-size="14.00" fill="#000000"> &#160;Declarations</text>
<polygon fill="#8dd3c7" stroke="transparent" points="663,-10 663,-30 683,-30 683,-10 663,-10"/>
<text text-anchor="start" x="686.7251" y="-15.4" font-family="sans-serif" font-size="14.00" fill="#000000"> &#160;Module</text>
<polygon fill="#80b1d3" stroke="transparent" points="749,-10 749,-30 769,-30 769,-10 749,-10"/>
<text text-anchor="start" x="772.7812" y="-15.4" font-family="sans-serif" font-size="14.00" fill="#000000"> &#160;Bootstrap</text>
<polygon fill="#fdb462" stroke="transparent" points="846,-10 846,-30 866,-30 866,-10 846,-10"/>
<text text-anchor="start" x="869.6732" y="-15.4" font-family="sans-serif" font-size="14.00" fill="#000000"> &#160;Providers</text>
<polygon fill="#fb8072" stroke="transparent" points="942,-10 942,-30 962,-30 962,-10 942,-10"/>
<text text-anchor="start" x="965.7258" y="-15.4" font-family="sans-serif" font-size="14.00" fill="#000000"> &#160;Exports</text>
<g id="clust1" class="cluster">
<title>cluster_AppModule</title>
<polygon fill="none" stroke="#000000" stroke-dasharray="1,5" points="76,-146 76,-412 596,-412 596,-146 76,-146"/>
</g>
<g id="clust2" class="cluster">
<title>cluster_AppModule_declarations</title>
<polygon fill="none" stroke="#000000" points="466,-222 466,-274 588,-274 588,-222 466,-222"/>
</g>
<g id="clust4" class="cluster">
<title>cluster_AppModule_imports</title>
<polygon fill="none" stroke="#000000" points="84,-154 84,-274 458,-274 458,-154 84,-154"/>
</g>
<g id="clust6" class="cluster">
<title>cluster_AppModule_bootstrap</title>
<polygon fill="none" stroke="#000000" points="192,-352 192,-404 316,-404 316,-352 192,-352"/>
</g>
<g id="clust14" class="cluster">
<title>cluster_ChatModule</title>
<polygon fill="none" stroke="#000000" stroke-dasharray="1,5" points="604,-146 604,-214 1220,-214 1220,-146 604,-146"/>
</g>
<g id="clust15" class="cluster">
<title>cluster_ChatModule_declarations</title>
<polygon fill="none" stroke="#000000" points="940,-154 940,-206 1212,-206 1212,-154 940,-154"/>
</g>
<g id="clust18" class="cluster">
<title>cluster_ChatModule_imports</title>
<polygon fill="none" stroke="#000000" points="784,-154 784,-206 932,-206 932,-154 784,-154"/>
</g>
<g id="clust21" class="cluster">
<title>cluster_ChatModule_providers</title>
<polygon fill="none" stroke="#000000" points="612,-154 612,-206 776,-206 776,-154 612,-154"/>
</g>
<g id="clust28" class="cluster">
<title>cluster_CoreModule</title>
<polygon fill="none" stroke="#000000" stroke-dasharray="1,5" points="8,-70 8,-138 472,-138 472,-70 8,-70"/>
</g>
<g id="clust30" class="cluster">
<title>cluster_CoreModule_imports</title>
<polygon fill="none" stroke="#000000" points="356,-78 356,-130 464,-130 464,-78 356,-78"/>
</g>
<g id="clust33" class="cluster">
<title>cluster_CoreModule_providers</title>
<polygon fill="none" stroke="#000000" points="16,-78 16,-130 348,-130 348,-78 16,-78"/>
</g>
<g id="clust40" class="cluster">
<title>cluster_SettingsModule</title>
<polygon fill="none" stroke="#000000" stroke-dasharray="1,5" points="1228,-146 1228,-214 1560,-214 1560,-146 1228,-146"/>
</g>
<g id="clust41" class="cluster">
<title>cluster_SettingsModule_declarations</title>
<polygon fill="none" stroke="#000000" points="1410,-154 1410,-206 1552,-206 1552,-154 1410,-154"/>
</g>
<g id="clust43" class="cluster">
<title>cluster_SettingsModule_imports</title>
<polygon fill="none" stroke="#000000" points="1236,-154 1236,-206 1402,-206 1402,-154 1236,-154"/>
</g>
<!-- AppComponent -->
<g id="node1" class="node">
<title>AppComponent</title>
<polygon fill="#ffffb3" stroke="#000000" points="579.9399,-266 474.0601,-266 474.0601,-230 579.9399,-230 579.9399,-266"/>
<text text-anchor="middle" x="527" y="-243.8" font-family="Times,serif" font-size="14.00" fill="#000000">AppComponent</text>
</g>
<!-- AppModule -->
<g id="node2" class="node">
<title>AppModule</title>
<polygon fill="#8dd3c7" stroke="#000000" points="295.6571,-331 292.6571,-335 271.6571,-335 268.6571,-331 212.3429,-331 212.3429,-295 295.6571,-295 295.6571,-331"/>
<text text-anchor="middle" x="254" y="-308.8" font-family="Times,serif" font-size="14.00" fill="#000000">AppModule</text>
</g>
<!-- AppComponent&#45;&gt;AppModule -->
<g id="edge1" class="edge">
<title>AppComponent&#45;&gt;AppModule</title>
<path fill="none" stroke="#000000" d="M527,-266.2921C527,-288.2057 527,-322 527,-322 527,-322 305.76,-322 305.76,-322"/>
<polygon fill="#000000" stroke="#000000" points="305.76,-318.5001 295.76,-322 305.76,-325.5001 305.76,-318.5001"/>
</g>
<!-- AppComponent  -->
<g id="node8" class="node">
<title>AppComponent </title>
<polygon fill="#80b1d3" stroke="#000000" points="308.439,-396 199.561,-396 199.561,-360 308.439,-360 308.439,-396"/>
<text text-anchor="middle" x="254" y="-373.8" font-family="Times,serif" font-size="14.00" fill="#000000">AppComponent </text>
</g>
<!-- AppModule&#45;&gt;AppComponent  -->
<g id="edge7" class="edge">
<title>AppModule&#45;&gt;AppComponent </title>
<path fill="none" stroke="#000000" stroke-dasharray="1,5" d="M254,-331.1061C254,-331.1061 254,-349.991 254,-349.991"/>
<polygon fill="#000000" stroke="#000000" points="250.5001,-349.9909 254,-359.991 257.5001,-349.991 250.5001,-349.9909"/>
</g>
<!-- AppRoutingModule -->
<g id="node3" class="node">
<title>AppRoutingModule</title>
<polygon fill="#8dd3c7" stroke="#000000" points="220.2744,-198 217.2744,-202 196.2744,-202 193.2744,-198 91.7256,-198 91.7256,-162 220.2744,-162 220.2744,-198"/>
<text text-anchor="middle" x="156" y="-175.8" font-family="Times,serif" font-size="14.00" fill="#000000">AppRoutingModule</text>
</g>
<!-- AppRoutingModule&#45;&gt;AppModule -->
<g id="edge2" class="edge">
<title>AppRoutingModule&#45;&gt;AppModule</title>
<path fill="none" stroke="#000000" d="M216.2795,-198.2142C216.2795,-198.2142 216.2795,-284.579 216.2795,-284.579"/>
<polygon fill="#000000" stroke="#000000" points="212.7795,-284.5789 216.2795,-294.579 219.7795,-284.579 212.7795,-284.5789"/>
</g>
<!-- ChatModule -->
<g id="node4" class="node">
<title>ChatModule</title>
<polygon fill="#8dd3c7" stroke="#000000" points="327.9916,-266 324.9916,-270 303.9916,-270 300.9916,-266 242.0084,-266 242.0084,-230 327.9916,-230 327.9916,-266"/>
<text text-anchor="middle" x="285" y="-243.8" font-family="Times,serif" font-size="14.00" fill="#000000">ChatModule</text>
</g>
<!-- ChatModule&#45;&gt;AppModule -->
<g id="edge3" class="edge">
<title>ChatModule&#45;&gt;AppModule</title>
<path fill="none" stroke="#000000" d="M268.9162,-266.1061C268.9162,-266.1061 268.9162,-284.991 268.9162,-284.991"/>
<polygon fill="#000000" stroke="#000000" points="265.4163,-284.9909 268.9162,-294.991 272.4163,-284.991 265.4163,-284.9909"/>
</g>
<!-- CoreModule -->
<g id="node5" class="node">
<title>CoreModule</title>
<polygon fill="#8dd3c7" stroke="#000000" points="325.2619,-198 322.2619,-202 301.2619,-202 298.2619,-198 238.7381,-198 238.7381,-162 325.2619,-162 325.2619,-198"/>
<text text-anchor="middle" x="282" y="-175.8" font-family="Times,serif" font-size="14.00" fill="#000000">CoreModule</text>
</g>
<!-- CoreModule&#45;&gt;AppModule -->
<g id="edge4" class="edge">
<title>CoreModule&#45;&gt;AppModule</title>
<path fill="none" stroke="#000000" d="M238.4904,-180C234.2396,-180 231.4635,-180 231.4635,-180 231.4635,-180 231.4635,-284.7858 231.4635,-284.7858"/>
<polygon fill="#000000" stroke="#000000" points="227.9636,-284.7858 231.4635,-294.7858 234.9636,-284.7858 227.9636,-284.7858"/>
</g>
<!-- CoreModule&#45;&gt;ChatModule -->
<g id="edge11" class="edge">
<title>CoreModule&#45;&gt;ChatModule</title>
<path fill="none" stroke="#000000" d="M255.9003,-198.2228C255.9003,-198.2228 255.9003,-219.7269 255.9003,-219.7269"/>
<polygon fill="#000000" stroke="#000000" points="252.4004,-219.7269 255.9003,-229.7269 259.4004,-219.727 252.4004,-219.7269"/>
</g>
<!-- MaterialModule -->
<g id="node6" class="node">
<title>MaterialModule</title>
<polygon fill="#8dd3c7" stroke="#000000" points="450.4706,-198 447.4706,-202 426.4706,-202 423.4706,-198 343.5294,-198 343.5294,-162 450.4706,-162 450.4706,-198"/>
<text text-anchor="middle" x="397" y="-175.8" font-family="Times,serif" font-size="14.00" fill="#000000">MaterialModule</text>
</g>
<!-- MaterialModule&#45;&gt;AppModule -->
<g id="edge5" class="edge">
<title>MaterialModule&#45;&gt;AppModule</title>
<path fill="none" stroke="#000000" d="M343.2985,-186C338.7222,-186 335.7933,-186 335.7933,-186 335.7933,-186 335.7933,-304 335.7933,-304 335.7933,-304 305.8551,-304 305.8551,-304"/>
<polygon fill="#000000" stroke="#000000" points="305.8551,-300.5001 295.8551,-304 305.8551,-307.5001 305.8551,-300.5001"/>
</g>
<!-- MaterialModule&#45;&gt;ChatModule -->
<g id="edge12" class="edge">
<title>MaterialModule&#45;&gt;ChatModule</title>
<path fill="none" stroke="#000000" d="M343.2351,-174C336.4882,-174 331.8946,-174 331.8946,-174 331.8946,-174 331.8946,-248 331.8946,-248 331.8946,-248 331.5266,-248 331.5266,-248"/>
<polygon fill="#000000" stroke="#000000" points="338.2149,-244.5003 328.2148,-248 338.2147,-251.5003 338.2149,-244.5003"/>
</g>
<!-- SettingsModule -->
<g id="node7" class="node">
<title>SettingsModule</title>
<polygon fill="#8dd3c7" stroke="#000000" points="450.1639,-266 447.1639,-270 426.1639,-270 423.1639,-266 345.8361,-266 345.8361,-230 450.1639,-230 450.1639,-266"/>
<text text-anchor="middle" x="398" y="-243.8" font-family="Times,serif" font-size="14.00" fill="#000000">SettingsModule</text>
</g>
<!-- MaterialModule&#45;&gt;SettingsModule -->
<g id="edge18" class="edge">
<title>MaterialModule&#45;&gt;SettingsModule</title>
<path fill="none" stroke="#000000" d="M371.8342,-198.2228C371.8342,-198.2228 371.8342,-219.7269 371.8342,-219.7269"/>
<polygon fill="#000000" stroke="#000000" points="368.3342,-219.7269 371.8342,-229.7269 375.3342,-219.727 368.3342,-219.7269"/>
</g>
<!-- SettingsModule&#45;&gt;AppModule -->
<g id="edge6" class="edge">
<title>SettingsModule&#45;&gt;AppModule</title>
<path fill="none" stroke="#000000" d="M398,-266.1061C398,-285.3391 398,-313 398,-313 398,-313 306.0379,-313 306.0379,-313"/>
<polygon fill="#000000" stroke="#000000" points="306.0379,-309.5001 296.0379,-313 306.0378,-316.5001 306.0379,-309.5001"/>
</g>
<!-- ChatComponent -->
<g id="node9" class="node">
<title>ChatComponent</title>
<polygon fill="#ffffb3" stroke="#000000" points="1203.7744,-198 1096.2256,-198 1096.2256,-162 1203.7744,-162 1203.7744,-198"/>
<text text-anchor="middle" x="1150" y="-175.8" font-family="Times,serif" font-size="14.00" fill="#000000">ChatComponent</text>
</g>
<!-- ChatComponent&#45;&gt;ChatModule -->
<g id="edge8" class="edge">
<title>ChatComponent&#45;&gt;ChatModule</title>
<path fill="none" stroke="#000000" d="M1150,-198.0664C1150,-207.4587 1150,-217 1150,-217 1150,-217 311.4847,-217 311.4847,-217 311.4847,-217 311.4847,-219.9672 311.4847,-219.9672"/>
<polygon fill="#000000" stroke="#000000" points="307.9848,-219.9671 311.4847,-229.9672 314.9848,-219.9672 307.9848,-219.9671"/>
</g>
<!-- MessageComponent -->
<g id="node10" class="node">
<title>MessageComponent</title>
<polygon fill="#ffffb3" stroke="#000000" points="1078.3104,-198 947.6896,-198 947.6896,-162 1078.3104,-162 1078.3104,-198"/>
<text text-anchor="middle" x="1013" y="-175.8" font-family="Times,serif" font-size="14.00" fill="#000000">MessageComponent</text>
</g>
<!-- MessageComponent&#45;&gt;ChatModule -->
<g id="edge9" class="edge">
<title>MessageComponent&#45;&gt;ChatModule</title>
<path fill="none" stroke="#000000" d="M1013,-198.2434C1013,-205.4297 1013,-212 1013,-212 1013,-212 297.5886,-212 297.5886,-212 297.5886,-212 297.5886,-219.5782 297.5886,-219.5782"/>
<polygon fill="#000000" stroke="#000000" points="294.0887,-219.5781 297.5886,-229.5782 301.0887,-219.5782 294.0887,-219.5781"/>
</g>
<!-- ChatRoutingModule -->
<g id="node11" class="node">
<title>ChatRoutingModule</title>
<polygon fill="#8dd3c7" stroke="#000000" points="923.6094,-198 920.6094,-202 899.6094,-202 896.6094,-198 792.3906,-198 792.3906,-162 923.6094,-162 923.6094,-198"/>
<text text-anchor="middle" x="858" y="-175.8" font-family="Times,serif" font-size="14.00" fill="#000000">ChatRoutingModule</text>
</g>
<!-- ChatRoutingModule&#45;&gt;ChatModule -->
<g id="edge10" class="edge">
<title>ChatRoutingModule&#45;&gt;ChatModule</title>
<path fill="none" stroke="#000000" d="M858,-198.207C858,-203.5549 858,-208 858,-208 858,-208 283.6925,-208 283.6925,-208 283.6925,-208 283.6925,-219.8726 283.6925,-219.8726"/>
<polygon fill="#000000" stroke="#000000" points="280.1926,-219.8725 283.6925,-229.8726 287.1926,-219.8726 280.1926,-219.8725"/>
</g>
<!-- SocketioService -->
<g id="node12" class="node">
<title>SocketioService</title>
<ellipse fill="#fdb462" stroke="#000000" cx="694" cy="-180" rx="73.5734" ry="18"/>
<text text-anchor="middle" x="694" y="-175.8" font-family="Times,serif" font-size="14.00" fill="#000000">SocketioService</text>
</g>
<!-- SocketioService&#45;&gt;ChatModule -->
<g id="edge13" class="edge">
<title>SocketioService&#45;&gt;ChatModule</title>
<path fill="none" stroke="#000000" d="M694,-198.1223C694,-200.9729 694,-203 694,-203 694,-203 269.7964,-203 269.7964,-203 269.7964,-203 269.7964,-219.9561 269.7964,-219.9561"/>
<polygon fill="#000000" stroke="#000000" points="266.2965,-219.956 269.7964,-229.9561 273.2965,-219.9561 266.2965,-219.956"/>
</g>
<!-- !environment -->
<g id="node13" class="node">
<title>!environment</title>
<polygon fill="#8dd3c7" stroke="#000000" points="455.9232,-122 452.9232,-126 431.9232,-126 428.9232,-122 364.0768,-122 364.0768,-86 455.9232,-86 455.9232,-122"/>
<text text-anchor="middle" x="410" y="-99.8" font-family="Times,serif" font-size="14.00" fill="#000000">!environment</text>
</g>
<!-- !environment&#45;&gt;CoreModule -->
<g id="edge14" class="edge">
<title>!environment&#45;&gt;CoreModule</title>
<path fill="none" stroke="#000000" d="M407.3871,-122.0439C407.3871,-134.5633 407.3871,-149 407.3871,-149 407.3871,-149 303.6904,-149 303.6904,-149 303.6904,-149 303.6904,-151.9672 303.6904,-151.9672"/>
<polygon fill="#000000" stroke="#000000" points="300.1905,-151.9671 303.6904,-161.9672 307.1905,-151.9672 300.1905,-151.9671"/>
</g>
<!-- I18nService -->
<g id="node14" class="node">
<title>I18nService</title>
<ellipse fill="#fdb462" stroke="#000000" cx="282" cy="-104" rx="57.8849" ry="18"/>
<text text-anchor="middle" x="282" y="-99.8" font-family="Times,serif" font-size="14.00" fill="#000000">I18nService</text>
</g>
<!-- I18nService&#45;&gt;CoreModule -->
<g id="edge15" class="edge">
<title>I18nService&#45;&gt;CoreModule</title>
<path fill="none" stroke="#000000" d="M282,-122.0109C282,-122.0109 282,-151.855 282,-151.855"/>
<polygon fill="#000000" stroke="#000000" points="278.5001,-151.8549 282,-161.855 285.5001,-151.855 278.5001,-151.8549"/>
</g>
<!-- LocalStorageService -->
<g id="node15" class="node">
<title>LocalStorageService</title>
<ellipse fill="#fdb462" stroke="#000000" cx="115" cy="-104" rx="91.4481" ry="18"/>
<text text-anchor="middle" x="115" y="-99.8" font-family="Times,serif" font-size="14.00" fill="#000000">LocalStorageService</text>
</g>
<!-- LocalStorageService&#45;&gt;CoreModule -->
<g id="edge16" class="edge">
<title>LocalStorageService&#45;&gt;CoreModule</title>
<path fill="none" stroke="#000000" d="M149.0435,-120.7498C149.0435,-128.4922 149.0435,-136 149.0435,-136 149.0435,-136 260.3096,-136 260.3096,-136 260.3096,-136 260.3096,-151.8495 260.3096,-151.8495"/>
<polygon fill="#000000" stroke="#000000" points="256.8097,-151.8494 260.3096,-161.8495 263.8097,-151.8495 256.8097,-151.8494"/>
</g>
<!-- SettingsComponent -->
<g id="node16" class="node">
<title>SettingsComponent</title>
<polygon fill="#ffffb3" stroke="#000000" points="1544.4468,-198 1417.5532,-198 1417.5532,-162 1544.4468,-162 1544.4468,-198"/>
<text text-anchor="middle" x="1481" y="-175.8" font-family="Times,serif" font-size="14.00" fill="#000000">SettingsComponent</text>
</g>
<!-- SettingsComponent&#45;&gt;SettingsModule -->
<g id="edge17" class="edge">
<title>SettingsComponent&#45;&gt;SettingsModule</title>
<path fill="none" stroke="#000000" d="M1481,-198.1804C1481,-211.0382 1481,-226 1481,-226 1481,-226 424.1659,-226 424.1659,-226 424.1659,-226 424.1659,-226.3832 424.1659,-226.3832"/>
<polygon fill="#000000" stroke="#000000" points="420.6661,-219.832 424.1659,-229.8321 427.6661,-219.8322 420.6661,-219.832"/>
</g>
<!-- SettingsRoutingModule -->
<g id="node17" class="node">
<title>SettingsRoutingModule</title>
<polygon fill="#8dd3c7" stroke="#000000" points="1393.7814,-198 1390.7814,-202 1369.7814,-202 1366.7814,-198 1244.2186,-198 1244.2186,-162 1393.7814,-162 1393.7814,-198"/>
<text text-anchor="middle" x="1319" y="-175.8" font-family="Times,serif" font-size="14.00" fill="#000000">SettingsRoutingModule</text>
</g>
<!-- SettingsRoutingModule&#45;&gt;SettingsModule -->
<g id="edge19" class="edge">
<title>SettingsRoutingModule&#45;&gt;SettingsModule</title>
<path fill="none" stroke="#000000" d="M1319,-198.1025C1319,-209.0859 1319,-221 1319,-221 1319,-221 398,-221 398,-221 398,-221 398,-221.8841 398,-221.8841"/>
<polygon fill="#000000" stroke="#000000" points="394.5001,-219.8408 398,-229.8408 401.5001,-219.8409 394.5001,-219.8408"/>
</g>
</g>
</svg>
